# xmcd
#
# Track frame offsets:
# 150
# 14426
# 25719
# 43148
# 62572
# 91647
# 112536
# 133162
# 146546
# 167689
# 183562
#
# Disc length: 2682 seconds
#
#
# Revision: 0
# Processed by: cddbd v1.5.2PL0 Copyright (c) Steve Scherf et al.
# Submitted via: Nero 7, 11, 10, 0 
#
DISCID=860a780b
DTITLE=Earl Thomas - The Elector Studio Sessions
DYEAR=2001
DGENRE=Blues
TTITLE0=I'm Broken Hearted
TTITLE1=Look at Granny Run Run
TTITLE2=All About Love
TTITLE3=Twenty-Four Hours Of Lovin'
TTITLE4=Lord Have Mercy
TTITLE5=Lead A Horse To Water
TTITLE6=I Won't Be Around
TTITLE7=Feelin' All Blue
TTITLE8=Rollin' and Tumblin'
TTITLE9=Same Old Blues
TTITLE10=Better To Have Loved and Lost
EXTD=
EXTT0=I'm Broken Hearted
EXTT1=Look at Granny Run Run
EXTT2=All About Love
EXTT3=Twenty-Four Hours Of Lovin'
EXTT4=Lord Have Mercy
EXTT5=Lead A Horse To Water
EXTT6=I Won't Be Around
EXTT7=Feelin' All Blue
EXTT8=Rollin' and Tumblin'
EXTT9=Same Old Blues
EXTT10=Better To Have Loved and Lost
PLAYORDER=
